<svg xmlns="http://www.w3.org/2000/svg" width="92" height="117" viewBox="0 0 92 117">
    <g fill="none" fill-rule="evenodd">
        <path fill="#7A7B77" d="M72.454 79l-36.357 6.41a4.05 4.05 0 0 1-4.685-3.29l-6.754-38.303a4.048 4.048 0 0 1 3.278-4.693l36.357-6.41a4.046 4.046 0 0 1 4.682 3.289l6.754 38.302A4.048 4.048 0 0 1 72.454 79"/>
        <path fill="#41413F" d="M70.49 77.315l-33.126 5.84c-2.002.354-3.914-.994-4.27-3.01L26.917 45.1c-.356-2.017.979-3.939 2.981-4.292l33.126-5.841c2.002-.353 3.914.996 4.27 3.013l6.179 35.044c.356 2.017-.98 3.937-2.982 4.29"/>
        <path fill="#C1C0BB" d="M66.402 38.69l5.513 31.265-37.422 6.6-5.513-31.266a3.183 3.183 0 0 1 .095-1.503 3.255 3.255 0 0 1 2.552-2.267l30.993-5.464a3.255 3.255 0 0 1 3.178 1.255c.3.393.513.862.604 1.38"/>
        <path fill="#F0F0EC" d="M66.39 38.618l4.483 25.429-31.513 5.556-5.036-28.56 28.337-4.996a3.217 3.217 0 0 1 3.134 1.223c.297.383.505.84.595 1.348"/>
        <path fill="#C1C0BB" d="M71.915 69.955l6.004 34.052c.05.281.081.565.095.849.04.597.004 1.189-.108 1.76-.05.281-.118.56-.212.83-.791 2.596-3.017 4.67-5.907 5.18-3.201.564-6.277-.947-7.809-3.555a6.796 6.796 0 0 1-.703-1.616 7.024 7.024 0 0 1-.2-.83l-4.39-24.897a3.627 3.627 0 0 0-.282-.902 3.84 3.84 0 0 0-1.324-1.594 3.964 3.964 0 0 0-2.934-.63c-2.135.376-3.565 2.386-3.195 4.49l4.39 24.896c.05.281.081.566.096.849.041.597.004 1.189-.106 1.76a5.914 5.914 0 0 1-.214.83c-.792 2.596-3.017 4.67-5.908 5.18-3.2.564-6.275-.947-7.81-3.554a6.858 6.858 0 0 1-.702-1.617 7.326 7.326 0 0 1-.2-.83l-6.003-34.052 37.422-6.599"/>
        <path fill="#F0F0EC" d="M71.915 69.955l5.937 33.671c.05.278.08.56.093.84.04.59.002 1.176-.11 1.74a5.31 5.31 0 0 1-.214.823c-.78.46-1.655.798-2.608.967-3.198.563-6.268-.928-7.796-3.504a6.75 6.75 0 0 1-.7-1.598 7.126 7.126 0 0 1-.196-.82l-3.226-18.29a3.777 3.777 0 0 0-1.601-2.467 3.96 3.96 0 0 0-2.93-.624l-.169.04a3.787 3.787 0 0 0-1.32-1.574 3.984 3.984 0 0 0-2.93-.62c-2.134.377-3.566 2.368-3.2 4.448l4.341 24.618c.05.278.08.56.094.84.04.59.002 1.175-.11 1.74a5.818 5.818 0 0 1-.214.823 7.79 7.79 0 0 1-2.61.967c-3.196.563-6.267-.928-7.794-3.504a6.69 6.69 0 0 1-.7-1.598 6.833 6.833 0 0 1-.196-.82L38.432 75.86l33.483-5.905"/>
        <path fill="#42748A" d="M55.342 108.418a2.697 2.697 0 0 1-.231 1.056l-13.96 2.462a2.725 2.725 0 0 1-.58-.914l14.771-2.604M39.702 106.098l14.772-2.604-.173-.985-14.773 2.605zM38.66 100.19l14.772-2.605-.173-.985-14.773 2.605zM37.618 94.28l14.772-2.604-.173-.985-14.772 2.605zM36.403 87.387l14.772-2.605-.174-.985-14.772 2.605z"/>
        <path fill="#F0F0EC" d="M31.708 60.967l-4.743-3.353-1.554-.743-4.141-1.973-1.555-.738-4.137-1.976-1.554-.737-4.143-1.973-1.554-.742-3.365-1.603a6.485 6.485 0 0 1-.752-.418 6.756 6.756 0 0 1-1.379-1.106 7.546 7.546 0 0 1-1.399-8.463 7.475 7.475 0 0 1 3.1-3.344 7.388 7.388 0 0 1 4.3-.927c.579.05 1.163.172 1.723.372.27.09.538.196.796.319l3.372 1.604 1.547.743 4.143 1.971 1.555.738 2.34 1.118c.61.29 1.196.622 1.748.98a14.733 14.733 0 0 1 4.66 4.895c.376.633.701 1.292.976 1.975.797 1.961-2.075 3.09-1.4 5.147.45 1.37.922 4.115 1.416 8.234z"/>
        <path fill="#C1C0BB" d="M32.898 53.876l-2.207-1.052-1.55-.744-4.131-1.971-1.55-.738-4.127-1.979-1.55-.736-4.132-1.973-1.549-.744-3.358-1.603a6.378 6.378 0 0 1-.75-.418 6.685 6.685 0 0 1-1.375-1.11 7.569 7.569 0 0 1-1.91-6.979A7.354 7.354 0 0 1 9 32.898a6.84 6.84 0 0 1 1.717.372c.27.089.538.195.794.318l3.364 1.605 1.543.743 4.133 1.972 1.55.738v.006l2.334 1.113c.609.289 1.193.622 1.744.98.487.323.953.671 1.398 1.04a14.716 14.716 0 0 1 3.248 3.86 15.193 15.193 0 0 1 2.072 8.231"/>
        <path fill="#42748A" d="M4.346 46.317a7.554 7.554 0 0 1-1.463-1.097L9.03 32.905c.61.05 1.222.18 1.82.38L4.345 46.316M9.05 49.087l-1.598-.752 6.523-13.655 1.596.75-6.522 13.657M14.661 52l-1.596-.75 6.522-13.657 1.597.752L14.66 52M20.315 54.92l-1.636-.758 6.589-13.644c.514.332 1.005.687 1.478 1.065l-6.43 13.338M27.073 57.701l-1.34-.677 4.239-10.698c.298.645.553 1.32.765 2.022l-3.664 9.353z"/>
        <path fill="#C1C0BB" d="M91.2 58.488a7.293 7.293 0 0 1-.076 2.074 7.438 7.438 0 0 1-4.067 5.4 7.544 7.544 0 0 1-8.485-1.25 6.703 6.703 0 0 1-1.13-1.36 6.485 6.485 0 0 1-.43-.745l-1.663-3.336-.77-1.54-2.043-4.109-.765-1.54-2.048-4.102-.765-1.542-2.044-4.106-.77-1.54-2.17-4.36a15.221 15.221 0 0 1 5.248-1.496 15.084 15.084 0 0 1 6.866.954c.686.264 1.352.576 1.99.942a14.76 14.76 0 0 1 3.913 3.19c.376.44.732.901 1.064 1.384.367.545.709 1.125 1.008 1.73l1.155 2.32h.006l.765 1.541 2.043 4.109.77 1.533 1.662 3.344c.128.255.239.522.333.79.21.556.343 1.138.402 1.715"/>
        <path fill="#F0F0EC" d="M91.102 57.94c.071.683.038 1.369-.092 2.037a9.126 9.126 0 0 1-.616.325c-2.968 1.425-6.42.858-8.67-1.165a6.6 6.6 0 0 1-1.147-1.328 6.036 6.036 0 0 1-.434-.727l-1.676-3.268-.777-1.507-2.06-4.019-.77-1.509-2.065-4.014-.771-1.507-2.062-4.022-.777-1.506-.393-.764c2.41-.237 4.816.082 7.017.886.7.254 1.38.556 2.03.91a14.679 14.679 0 0 1 3.979 3.105c.382.43.742.88 1.078 1.352.372.533.717 1.1 1.02 1.692l1.163 2.271.006-.001.771 1.509 2.06 4.02.776 1.501 1.677 3.272c.128.25.24.511.334.774.21.545.342 1.116.399 1.682"/>
        <path fill="#42748A" d="M76.849 63.382c.321.535.7 1.02 1.122 1.444l12.207-6.36a7.82 7.82 0 0 0-.411-1.812l-12.918 6.728M74.982 58.555l.78 1.583 13.539-6.76-.78-1.582-13.539 6.759M71.97 52.994l.78 1.583 13.54-6.759-.78-1.584-13.54 6.76M68.952 47.392l.788 1.623 13.526-6.826c-.34-.509-.704-.993-1.09-1.46l-13.224 6.663M65.827 41.187l.747 1.278 11.788-5.052c-.65-.286-1.33-.53-2.035-.73l-10.5 4.504M77.993 104.424a2.676 2.676 0 0 1-.233 1.056l-13.959 2.462a2.7 2.7 0 0 1-.58-.914l14.772-2.604M62.353 102.104L77.125 99.5l-.174-.985-14.772 2.605zM61.31 96.196l14.773-2.605-.174-.985-14.772 2.605zM60.269 90.287l14.772-2.605-.174-.985-14.772 2.605zM59.053 83.393l14.772-2.605-.173-.984-14.772 2.604z"/>
        <path fill="#26414D" d="M47.292 57.002l.185 1.047c.039.222.054.44.045.657-.049 1.355-.973 2.522-2.29 2.754l-4.332.764c-1.526.269-2.987-.825-3.272-2.438l-.184-1.048c-.241-1.365.446-2.674 1.591-3.204.203-.094.417-.163.65-.204l4.331-.764c1.525-.269 2.992.826 3.276 2.436"/>
        <path fill="#42748A" d="M47.208 56.526l.154.876c.033.185.045.37.035.55-.18.084-.374.146-.576.182l-3.816.672c-1.344.237-2.621-.67-2.86-2.024l-.154-.872a2.455 2.455 0 0 1-.034-.553c.18-.08.368-.14.573-.176l3.815-.673a2.479 2.479 0 0 1 2.863 2.018"/>
        <path fill="#26414D" d="M62.157 54.925c.076.429.068.854-.009 1.252a3.5 3.5 0 0 1-6.885-.036 3.488 3.488 0 0 1 1.097-3.201 3.46 3.46 0 0 1 1.744-.858 3.503 3.503 0 0 1 4.053 2.843"/>
        <path fill="#42748A" d="M62.125 54.744c.072.407.069.809.003 1.184a2.947 2.947 0 0 1-1.549.795c-1.706.3-3.344-.92-3.662-2.724a3.513 3.513 0 0 1-.007-1.185c.421-.404.947-.688 1.556-.796 1.7-.3 3.34.92 3.66 2.726"/>
        <path fill="#26414D" d="M62.82 64.449c.058.324.035.642-.059.936a1.993 1.993 0 0 1-1.56 1.383 2.002 2.002 0 0 1-2.32-1.625 1.995 1.995 0 0 1 1.211-2.192 1.998 1.998 0 0 1 2.728 1.498"/>
        <path fill="#C1C0BB" d="M66.16 37.32c-3.752 5.76-9.662 9.968-16.806 11.228-7.14 1.26-14.133-.674-19.631-4.804.33-1.176 1.275-2.114 2.517-2.333l30.753-5.422c1.248-.22 2.455.338 3.168 1.33"/>
        <path fill="#797A76" d="M70.466 15.668l1.116 6.33c.046.256.074.516.08.774.068 2.577-1.792 4.896-4.439 5.363l-3.586.632-2.952-16.742 3.586-.632c2.913-.513 5.689 1.401 6.195 4.275M25.232 18.277l2.952 16.742-3.587.632c-2.912.514-5.687-1.403-6.194-4.277l-1.116-6.329c-.35-1.986.475-3.915 1.978-5.084a5.412 5.412 0 0 1 2.38-1.052l3.587-.632"/>
        <path fill="#9E9F9B" d="M70.458 15.621l1.106 6.272c.045.255.074.512.08.767a5.073 5.073 0 0 1-2.3 1.04l-3.447.607-2.257-12.802.827-.146c2.805-.495 5.489 1.414 5.991 4.262M25.232 18.277l2.258 12.802-.83.147c-2.808.495-5.487-1.417-5.99-4.265l-1.105-6.272a4.536 4.536 0 0 1-.075-.773 5.093 5.093 0 0 1 2.289-1.03l3.453-.61"/>
        <path fill="#9E9F9B" d="M66.998 19.036a22.849 22.849 0 0 1-2.875 15.724A22.916 22.916 0 0 1 48.34 45.68c-12.509 2.206-24.437-6.146-26.643-18.657-1.675-9.501 2.737-18.665 10.44-23.494A22.984 22.984 0 0 1 40.352.38c12.511-2.206 24.44 6.146 26.645 18.657"/>
        <path fill="#F0F0EC" d="M66.932 18.659a22.319 22.319 0 0 1-2.89 15.473 23.002 23.002 0 0 1-8.165 3.112c-12.445 2.194-24.296-5.997-26.466-18.3a22.337 22.337 0 0 1 2.883-15.47A23.095 23.095 0 0 1 40.471.357c12.446-2.194 24.292 5.999 26.461 18.3"/>
        <path fill="#42748A" d="M37.051 4.786c.19.503-.035 1.098-.506 1.313-.473.214-1.063-.009-1.318-.498-.256-.488-.03-1.082.5-1.324.534-.242 1.122-.02 1.324.51M41.04 4.269c.09.544-.244 1.08-.75 1.197-.506.115-1.042-.222-1.197-.752-.155-.53.182-1.067.75-1.197.57-.13 1.106.207 1.197.752M44.01 3.95c-.016.552-.45 1.01-.97 1.022-.518.008-.979-.425-1.026-.96-.05-.563.381-1.025.967-1.037.586-.013 1.046.425 1.029.975"/>
        <path fill="#2A2B29" d="M67.172 20.021c.465 2.638.079 5.275-1.002 7.755-2.698 6.21-9.75 11.403-18.698 12.98-12.509 2.206-23.97-3.5-25.6-12.747-1.074-6.083 2.377-12.185 8.434-16.277 3.139-2.123 6.986-3.705 11.262-4.46 12.512-2.205 23.974 3.503 25.604 12.75"/>
        <path fill="#3C3C3A" d="M67.184 20.087c.467 2.648.086 5.293-.986 7.78-3.12 2.123-6.941 3.703-11.19 4.453-12.445 2.194-23.864-3.553-25.501-12.836-.467-2.646-.087-5.294.98-7.774 3.12-2.127 6.946-3.708 11.2-4.458 12.446-2.195 23.86 3.552 25.497 12.835"/>
        <path fill="#FFFFFE" d="M64.242 58.108c-.272.048-.563-.312-.65-.802l-1.596-9.054c-.087-.491.064-.929.336-.977.271-.048.562.312.649.804l1.596 9.053c.087.49-.064.928-.335.976M85.524 53.317c-.468.19-1.005.002-1.198-.422l-3.572-7.82c-.193-.423.028-.922.497-1.112.47-.193 1.006-.004 1.2.42l3.571 7.82c.193.425-.03.922-.498 1.114M70.783 89.448c-.272.048-.562-.31-.65-.802l-1.596-9.055c-.087-.492.063-.928.336-.976.272-.048.562.31.649.803l1.597 9.054c.086.492-.064.928-.336.976"/>
    </g>
</svg>
