<svg xmlns="http://www.w3.org/2000/svg" width="99" height="102" viewBox="0 0 99 102">
    <g fill="none" fill-rule="evenodd">
        <path fill="#BB4436" d="M37.113 83.35L18.858 65.707l2.09-2.25 18.254 17.64z"/>
        <path fill="#F1854F" d="M33.63 43.79S13.384 39.472.571 57.685c-1.199 1.703.569 3.924 2.557 3.188 5.498-2.039 13.756-3.664 20.7.917l9.8-18zM58.141 67.515s5.443 19.866-12.51 33.67c-1.678 1.29-4.038-.336-3.387-2.355 1.8-5.586 3.043-13.887-1.994-20.52L58.14 67.516z"/>
        <path fill="#FFF" d="M40.134 82.007c5.209-2.034 22.44-15.143 36.7-30.192C92.966 34.79 100.587 4.608 97.27 1.466c-3.32-3.14-33.06 6.107-49.192 23.131-15.216 16.058-26.42 32.96-28.168 38.266l20.224 19.144z"/>
        <path fill="#F1854F" d="M72.915 7.966a33.183 33.183 0 0 0 7.974 11.84 32.892 32.892 0 0 0 12.171 7.381c4.984-12.16 6.853-23.174 5.15-25.475a1.76 1.76 0 0 0-.15-.172 1.755 1.755 0 0 0-.176-.14c-2.375-1.588-13.19.892-24.969 6.566"/>
        <path fill="#FFF" d="M84.762 3.842a.583.583 0 0 1-.17-.243c-.106-.301.077-.617.407-.707 2.552-.697 4.965-1.211 6.983-1.49.344-.046.668.167.727.475.06.31-.17.6-.514.647-1.96.271-4.315.773-6.812 1.455a.686.686 0 0 1-.621-.137M81.399 5.166a.506.506 0 0 1 .185-.859c.47-.16.928-.311 1.377-.454.281-.09.588.056.684.327a.506.506 0 0 1-.336.653c-.443.14-.895.29-1.356.447a.555.555 0 0 1-.554-.114"/>
        <path fill="#F1854F" d="M77.452 38.438c4.255-4.494 4.061-11.583-.432-15.84-4.492-4.254-11.585-4.061-15.838.432-4.255 4.493-4.063 11.583.43 15.838 4.494 4.256 11.584 4.063 15.84-.43M60.525 50.028c2.567-2.557 2.429-6.61-.311-9.056-2.74-2.447-7.043-2.36-9.61.197-2.569 2.556-2.43 6.609.31 9.056 2.74 2.446 7.043 2.359 9.611-.197"/>
    </g>
</svg>
