<svg xmlns="http://www.w3.org/2000/svg" width="1440" height="292" viewBox="0 0 1440 292">
    <g fill="none" fill-rule="evenodd">
        <path fill="#DD3578" d="M394 178v.198V178M743 178v.198V178"/>
        <path fill="#E67A61" d="M-1 294h1547V189.71H-1z"/>
        <path fill="#E36A4F" d="M-1 294h1065.984v-50.13H-1z"/>
        <path fill="#A74632" d="M350.842 273h-10.686c-5.057 0-9.156 4.362-9.156 9.744V286h29v-3.256c0-5.382-4.1-9.744-9.158-9.744M313.628 268h-6.256c-4.623 0-8.372 3.714-8.372 8.296V285h23v-8.704c0-4.582-3.748-8.296-8.372-8.296"/>
        <path fill="#C05037" d="M341.843 273h-10.686c-5.057 0-9.157 4.362-9.157 9.744V286h29v-3.256c0-5.382-4.1-9.744-9.157-9.744M305.628 268h-6.256c-4.623 0-8.372 3.714-8.372 8.296V285h23v-8.704c0-4.582-3.748-8.296-8.372-8.296"/>
        <g fill="#E06145">
            <path d="M585.273 189.71c-.766 9.41-8.644 16.79-18.253 16.79H357.083c-1.56 0-2.979.64-4.016 1.661a5.669 5.669 0 0 0-1.66 4.017 5.677 5.677 0 0 0 5.676 5.677h40.919c1.687 0 3.236.696 4.341 1.803a6.1 6.1 0 0 1 1.804 4.357 6.147 6.147 0 0 0 6.146 6.146h119.7c3.788 0 7.223 1.533 9.706 4.017a13.688 13.688 0 0 1 4.017 9.708c0 7.58-6.145 13.711-13.723 13.711H39.88a15.563 15.563 0 0 1-11.043-4.57 15.563 15.563 0 0 1-4.569-11.042c0-8.616 6.982-15.613 15.612-15.613h74.07a7.5 7.5 0 0 0 5.35-2.215 7.54 7.54 0 0 0 2.215-5.35 7.553 7.553 0 0 0-7.565-7.566H93.427c-9.367 0-16.944-7.593-16.944-16.947v-4.584h508.79M1079.575 236.089H948.08c-5.932 0-10.758 4.814-10.758 10.757 0 5.94-4.811 10.756-10.758 10.756H713.547a9.451 9.451 0 0 0-9.452 9.453 9.45 9.45 0 0 0 9.452 9.451h756.028V236.09"/>
        </g>
        <path fill="#C05037" d="M382 199h-71.758V83h13.024C355.703 83 382 108.17 382 139.219V199"/>
        <path fill="#A74632" d="M355.19 113.02V199H213.25v-9.155c0-3.373.557-6.608 1.594-9.648a29.53 29.53 0 0 1 3.064-6.447c5.65-8.961 15.869-14.946 27.536-14.946 5.974 0 11.378-2.332 15.29-6.114a21.5 21.5 0 0 0 1.838-2.02 20.545 20.545 0 0 0 3.51-6.447 20.11 20.11 0 0 0 .993-6.275v-.171c.044-3.729 1.639-7.092 4.167-9.542 2.575-2.482 6.14-4.018 10.074-4.018 3.935 0 7.501-1.537 10.074-4.03 2.119-2.03 3.567-4.706 4.024-7.682.1-.666.155-1.343.155-2.03v-1.913c0-.85.045-1.687.124-2.504C297.008 93.122 308.32 83 322.08 83h1.985c17.184 0 31.123 13.442 31.123 30.02"/>
        <path fill="#E36A4F" d="M344.938 113.02V199H203v-9.155c0-3.373.557-6.608 1.592-9.648a29.53 29.53 0 0 1 3.065-6.447c5.651-8.961 15.87-14.946 27.536-14.946 5.974 0 11.378-2.332 15.29-6.114a21.063 21.063 0 0 0 1.838-2.02 20.548 20.548 0 0 0 3.512-6.447c.646-1.977.99-4.083.99-6.275v-.171c.045-3.729 1.638-7.092 4.17-9.542 2.572-2.482 6.138-4.018 10.073-4.018 3.933 0 7.499-1.537 10.074-4.03 2.116-2.03 3.565-4.706 4.022-7.682.1-.666.157-1.343.157-2.03v-1.913c0-.85.045-1.687.122-2.504C286.757 93.122 298.066 83 311.83 83h1.982c17.183 0 31.125 13.442 31.125 30.02"/>
        <path fill="#C05037" d="M330.744 109.157c0 .944-.38 1.797-.983 2.41a3.31 3.31 0 0 1-2.366 1.002h-41.598c.1-.705.158-1.422.158-2.15v-2.024c0-.899.044-1.786.121-2.65h41.32c1.851 0 3.348 1.524 3.348 3.412M301.568 147.824c0 .943-.382 1.796-.99 2.41-.608.615-1.464 1.001-2.387 1.001h-45.513a22.084 22.084 0 0 0 3.548-6.823h41.965c1.858 0 3.377 1.535 3.377 3.412M450 199h-45.86v-65h10.073C433.978 134 450 149.345 450 168.277V199"/>
        <path fill="#A74632" d="M434.977 155.588V199h-45.07v-43.412c0-.536.023-1.072.068-1.609a20.37 20.37 0 0 1 1.556-6.434c3.325-7.936 11.432-13.545 20.905-13.545 12.452 0 22.54 9.663 22.54 21.588"/>
        <path fill="#E36A4F" d="M427.07 155.588V199H382v-43.412c0-.536.022-1.072.067-1.609a20.37 20.37 0 0 1 1.557-6.434C386.95 139.609 395.056 134 404.529 134c12.452 0 22.54 9.663 22.54 21.588"/>
        <path fill="#C05037" d="M398.605 151.006c0 .94-.381 1.791-.985 2.403a3.32 3.32 0 0 1-2.367.998H382c.168-2.392.704-4.671 1.553-6.802h11.7c1.853 0 3.352 1.53 3.352 3.4M416 173.68c0 .941-.37 1.792-.99 2.404a3.35 3.35 0 0 1-2.382.997H382v-6.802h30.628c1.866 0 3.372 1.52 3.372 3.401"/>
        <path fill="#E06145" d="M913 208.946c0 2.21-.895 4.194-2.358 5.63a8.066 8.066 0 0 1-5.694 2.336H813.16c-5.028 0-9.118 4.054-9.118 9.037a9.04 9.04 0 0 1-2.67 6.405 9.144 9.144 0 0 1-6.447 2.646H667.535c-6.18 0-11.193-4.969-11.193-11.092 0-3.068-1.25-5.841-3.282-7.854a11.2 11.2 0 0 0-7.909-3.238h-6.96c-6.192 0-11.191-4.968-11.191-11.091V189h225.812c1.747 6.869 8.025 11.965 15.495 11.965h36.64c4.446 0 8.053 3.575 8.053 7.98M1197 209.946c0 2.21.895 4.194 2.358 5.63a8.066 8.066 0 0 0 5.694 2.336h91.787c5.028 0 9.118 4.054 9.118 9.037a9.04 9.04 0 0 0 2.67 6.405 9.144 9.144 0 0 0 6.447 2.646h127.391c6.18 0 11.193-4.969 11.193-11.092 0-3.068 1.25-5.841 3.282-7.854a11.2 11.2 0 0 1 7.909-3.238h6.96c6.192 0 11.191-4.968 11.191-11.091V190h-225.812c-1.747 6.869-8.025 11.965-15.495 11.965h-36.64c-4.446 0-8.053 3.575-8.053 7.98"/>
        <path fill="#C05037" d="M1343.06 155.191c0-5.076 4.123-9.191 9.213-9.191h13.818c14.313 0 25.909 11.573 25.909 25.851V200h-76v-17.809c0-9.836 7.992-17.808 17.848-17.808 5.09 0 9.213-4.116 9.213-9.192"/>
        <path fill="#A74632" d="M1354.06 155.191c0-5.076 4.135-9.191 9.213-9.191h13.818c14.313 0 25.909 11.573 25.909 25.851V200h-76v-17.809c0-9.836 7.992-17.808 17.848-17.808 5.09 0 9.213-4.116 9.213-9.192"/>
        <path fill="#E36A4F" d="M1337 182.191V200h76v-28.149c0-2.045-.242-4.033-.69-5.94a25.286 25.286 0 0 0-3.432-8.042c-4.606-7.147-12.644-11.869-21.787-11.869h-13.818c-5.09 0-9.212 4.113-9.212 9.191a9.198 9.198 0 0 1-2.695 6.503 9.24 9.24 0 0 1-6.518 2.689c-9.27 0-16.892 7.054-17.767 16.085-.058.563-.081 1.138-.081 1.723"/>
        <path fill="#C05037" d="M1378 162c0 1.109.445 2.114 1.176 2.834a3.987 3.987 0 0 0 2.82 1.166H1411a25.193 25.193 0 0 0-3.403-8h-25.6a4.003 4.003 0 0 0-3.997 4M1336 182.714V189h21.895c2.264 0 4.105-1.794 4.105-4a3.905 3.905 0 0 0-1.208-2.823 4.09 4.09 0 0 0-2.897-1.177h-21.813c-.059.56-.082 1.131-.082 1.714"/>
        <path fill="#8298C1" d="M982 201v26.068c0 .315-.014.617-.057.918a5.897 5.897 0 0 1-1.646 3.208 6.043 6.043 0 0 1-4.33 1.806H873.033c-3.335 0-6.032-2.658-6.032-5.932V201h115"/>
        <path fill="#A0B2D1" d="M982 201v26.764c0 .323-.014.634-.057.943a6.117 6.117 0 0 1-1.642 3.293H875.017c-3.313 0-6.017-2.73-6.017-6.092V201h113"/>
        <path fill="#C3CFE0" d="M981 201v26.081c0 .315-.014.618-.056.919H873.3c-1.27 0-2.301-1.018-2.301-2.276V201h110"/>
        <path fill="#3A3B44" d="M941 236.197v-6.394h-2.622a14.03 14.03 0 0 0-1.658-3.997l1.857-1.859-4.521-4.522-1.857 1.86a13.688 13.688 0 0 0-3.996-1.655V217h-6.392v2.63a13.772 13.772 0 0 0-4.01 1.654l-1.857-1.86-4.52 4.523 1.856 1.86a13.606 13.606 0 0 0-1.644 3.996H909v6.394h2.636c.34 1.433.893 2.778 1.644 3.998l-1.857 1.858 4.521 4.524 1.857-1.861a13.733 13.733 0 0 0 4.01 1.654V249h6.392v-2.63a13.65 13.65 0 0 0 3.996-1.654l1.857 1.86 4.52-4.523-1.856-1.858a14.022 14.022 0 0 0 1.658-3.998H941"/>
        <path fill="#3A3B44" d="M939 231.828v3.345h-1.094a1.55 1.55 0 0 0-1.505 1.173 12.249 12.249 0 0 1-1.463 3.561 1.54 1.54 0 0 0 .213 1.886l.185.176.596.607-2.357 2.363-.781-.782a1.525 1.525 0 0 0-1.889-.223 11.894 11.894 0 0 1-3.565 1.473 1.532 1.532 0 0 0-1.164 1.49V248h-3.352v-1.104c0-.705-.483-1.326-1.164-1.49a12.048 12.048 0 0 1-3.565-1.472 1.525 1.525 0 0 0-1.889.223l-.78.782-2.358-2.363.78-.783a1.562 1.562 0 0 0 .228-1.886 11.902 11.902 0 0 1-1.477-3.56 1.538 1.538 0 0 0-1.505-1.174H910v-3.345h1.094c.383 0 .738-.139 1.008-.376.241-.2.412-.476.497-.797a11.887 11.887 0 0 1 1.477-3.56c.355-.607.27-1.39-.227-1.888l-.781-.783 2.357-2.363.781.784c.298.297.696.451 1.08.451.284 0 .568-.076.809-.23a12.086 12.086 0 0 1 3.565-1.473 1.529 1.529 0 0 0 1.164-1.488V219h3.352v1.105c0 .706.483 1.327 1.164 1.488 1.279.3 2.471.797 3.565 1.473.241.154.525.23.81.23.383 0 .78-.154 1.079-.451l.78-.784 2.358 2.363-.78.783a1.542 1.542 0 0 0-.214 1.887 12.233 12.233 0 0 1 1.463 3.561 1.55 1.55 0 0 0 1.505 1.173H939"/>
        <path fill="#4E4F5C" d="M940 231.663v3.301h-1.098c-.712 0-1.34.477-1.51 1.158a11.98 11.98 0 0 1-1.47 3.515 1.5 1.5 0 0 0 .215 1.862l.185.174A15.465 15.465 0 0 1 928.14 244c-7.64 0-13.984-5.507-15.139-12.709a1.51 1.51 0 0 0 .499-.786c.3-1.251.798-2.433 1.483-3.515a1.524 1.524 0 0 0-.229-1.863l-.784-.773 2.367-2.333.784.774c.3.293.698.446 1.083.446.285 0 .57-.076.813-.227a12.246 12.246 0 0 1 3.578-1.454 1.514 1.514 0 0 0 1.169-1.47V219h3.364v1.09c0 .698.485 1.31 1.17 1.47 1.282.296 2.48.787 3.577 1.454.243.151.528.227.813.227.385 0 .784-.153 1.083-.446l.784-.774 2.367 2.333-.784.773a1.503 1.503 0 0 0-.214 1.863 11.964 11.964 0 0 1 1.468 3.515 1.551 1.551 0 0 0 1.511 1.158H940"/>
        <path fill="#3A3B44" d="M976 236.197v-6.394h-2.636a13.636 13.636 0 0 0-1.658-3.997l1.856-1.859-4.52-4.522-1.857 1.86a13.688 13.688 0 0 0-3.996-1.655V217h-6.392v2.63a13.688 13.688 0 0 0-3.996 1.654l-1.857-1.86-4.52 4.523 1.856 1.86a13.636 13.636 0 0 0-1.658 3.996H944v6.394h2.622c.34 1.433.907 2.778 1.658 3.998l-1.857 1.858 4.521 4.524 1.857-1.861a13.65 13.65 0 0 0 3.996 1.654V249h6.392v-2.63a13.65 13.65 0 0 0 3.996-1.654l1.857 1.86 4.52-4.523-1.856-1.858a13.629 13.629 0 0 0 1.658-3.998H976"/>
        <path fill="#3A3B44" d="M975 231.828v3.345h-1.108c-.71 0-1.335.483-1.49 1.173a12.282 12.282 0 0 1-1.478 3.561c-.37.605-.284 1.39.227 1.886l.583.584.184.199-2.357 2.363-.767-.782a1.516 1.516 0 0 0-.568-.354c-.17-.068-.341-.1-.526-.1-.27 0-.554.079-.795.23-.128.079-.27.155-.398.23-.98.562-2.059.984-3.167 1.244a1.529 1.529 0 0 0-1.178 1.49V248h-3.338v-1.104c0-.705-.497-1.326-1.179-1.49a11.966 11.966 0 0 1-3.55-1.472 1.6 1.6 0 0 0-.81-.23c-.397 0-.795.153-1.079.453l-.78.782-2.373-2.363.781-.783a1.542 1.542 0 0 0 .228-1.886 11.902 11.902 0 0 1-1.477-3.56 1.534 1.534 0 0 0-1.491-1.174H946v-3.345h1.094c.71 0 1.32-.483 1.49-1.173.114-.484.27-.96.441-1.427.27-.746.61-1.459 1.037-2.134.369-.606.27-1.389-.228-1.887l-.255-.262-.526-.52 2.372-2.364.781.784c.284.297.682.451 1.08.451.27 0 .553-.076.809-.23a12.003 12.003 0 0 1 3.55-1.473 1.541 1.541 0 0 0 1.18-1.488V219h3.337v1.105c0 .706.482 1.327 1.178 1.488 1.264.3 2.457.797 3.565 1.473a1.5 1.5 0 0 0 .795.23c.398 0 .796-.154 1.094-.451l.767-.784 2.357 2.363-.767.783a1.525 1.525 0 0 0-.227 1.887 12.265 12.265 0 0 1 1.477 3.561c.156.69.781 1.173 1.491 1.173H975"/>
        <path fill="#4E4F5C" d="M975 231.663v3.301h-1.108c-.71 0-1.336.477-1.492 1.158a12.035 12.035 0 0 1-1.478 3.515 1.488 1.488 0 0 0 .228 1.862l.582.576a14.61 14.61 0 0 1-3.509 1.408c-.554.152-1.137.274-1.72.356a15.41 15.41 0 0 1-2.23.161c-8.382 0-15.188-6.658-15.259-14.904l-.014-.16c0-1.41.199-2.772.568-4.067.142-.537.327-1.06.54-1.568l1.307-1.28.782.774c.284.293.682.446 1.08.446.27 0 .554-.076.81-.227a12.098 12.098 0 0 1 3.551-1.454 1.526 1.526 0 0 0 1.18-1.47V219h3.338v1.09c0 .698.483 1.31 1.18 1.47 1.264.296 2.457.787 3.566 1.454.241.151.525.227.795.227.398 0 .796-.153 1.094-.446l.767-.774 2.359 2.333-.767.773a1.49 1.49 0 0 0-.228 1.863 12.019 12.019 0 0 1 1.478 3.515c.156.681.781 1.158 1.492 1.158H975"/>
        <path fill="#3A3B44" d="M905 236.197v-6.394h-2.636a13.636 13.636 0 0 0-1.658-3.997l1.87-1.859-4.52-4.522-1.87 1.86a13.688 13.688 0 0 0-3.997-1.655V217h-6.392v2.63a13.688 13.688 0 0 0-3.996 1.654l-1.857-1.86-4.52 4.523 1.856 1.86a13.636 13.636 0 0 0-1.658 3.996H873v6.394h2.622c.34 1.433.907 2.778 1.658 3.998l-1.857 1.858 4.521 4.524 1.857-1.861a13.65 13.65 0 0 0 3.996 1.654V249h6.392v-2.63a13.65 13.65 0 0 0 3.996-1.654l1.87 1.86 4.522-4.523-1.871-1.858a13.629 13.629 0 0 0 1.658-3.998H905"/>
        <path fill="#3A3B44" d="M903 231.828v3.345h-1.094c-.71 0-1.321.483-1.492 1.173a11.899 11.899 0 0 1-1.478 3.561c-.37.605-.27 1.39.228 1.886l.355.361.426.422-2.359 2.363-.795-.782c-.242-.253-.54-.4-.881-.43l-.2-.023c-.269 0-.553.078-.795.23l-.142.078a11.703 11.703 0 0 1-3.424 1.395 1.544 1.544 0 0 0-1.18 1.49V248h-3.339v-1.104a1.53 1.53 0 0 0-1.179-1.49 12.215 12.215 0 0 1-3.566-1.472 1.51 1.51 0 0 0-1.876.223l-.781.782-2.359-2.363.767-.783a1.522 1.522 0 0 0 .228-1.886 12.278 12.278 0 0 1-1.478-3.56 1.522 1.522 0 0 0-1.492-1.174H874v-3.345h1.094c.64 0 1.194-.385 1.42-.951l.072-.222a12.262 12.262 0 0 1 1.478-3.56c.37-.607.284-1.39-.228-1.888l-.724-.737-.043-.046.085-.085 2.274-2.278.781.784a1.52 1.52 0 0 0 1.08.451c.284 0 .554-.076.796-.23a12.254 12.254 0 0 1 3.566-1.473 1.526 1.526 0 0 0 1.18-1.488V219h3.339v1.105c0 .706.497 1.327 1.179 1.488 1.264.3 2.458.797 3.566 1.473.242.154.526.23.796.23.398 0 .796-.154 1.08-.451l.795-.784 2.36 2.363-.782.783a1.543 1.543 0 0 0-.228 1.887 11.884 11.884 0 0 1 1.478 3.561c.17.69.781 1.173 1.492 1.173H903"/>
        <path fill="#8298C1" d="M965 233.5a4.502 4.502 0 0 1-9 0c0-1.737.971-3.24 2.42-3.983a4.358 4.358 0 0 1 2.087-.517 4.496 4.496 0 0 1 4.493 4.5M930 233.5c0 .924-.275 1.769-.754 2.482a4.47 4.47 0 0 1-3.739 2.018 4.504 4.504 0 0 1-4.507-4.5c0-1.737.971-3.24 2.406-3.983A4.496 4.496 0 0 1 930 233.5"/>
        <path fill="#C3CFE0" d="M964 233.206a4.13 4.13 0 0 1-.707 2.312 4.261 4.261 0 0 1-1.996.482c-2.384 0-4.297-1.878-4.297-4.205 0-.849.25-1.647.707-2.312a4.246 4.246 0 0 1 1.996-.483c2.37 0 4.297 1.88 4.297 4.206M929 233.206c0 .864-.263 1.654-.72 2.32a4.325 4.325 0 0 1-1.978.474c-2.38 0-4.302-1.878-4.302-4.205 0-.849.263-1.647.706-2.312a4.37 4.37 0 0 1 2.005-.483c2.366 0 4.289 1.88 4.289 4.206"/>
        <path fill="#E3EAF1" d="M962 232c0 .553-.443 1-1.008 1a.995.995 0 0 1-.992-1c0-.553.443-1 .992-1a.998.998 0 0 1 1.008 1M926 232c0 .553-.455 1-1 1-.545 0-1-.447-1-1 0-.553.455-1 1-1 .545 0 1 .447 1 1"/>
        <path fill="#4E4F5C" d="M904 231.663v3.301h-1.11a1.55 1.55 0 0 0-1.515 1.158 11.57 11.57 0 0 1-1.5 3.515 1.49 1.49 0 0 0 .23 1.862l.361.356a15.246 15.246 0 0 1-3.663 1.553c-.375.106-.765.197-1.154.28-1.01.204-2.062.312-3.144.312-7.947 0-14.495-5.794-15.39-13.277a14.341 14.341 0 0 1 .606-6.324l.043-.129 2.308-2.249.793.774a1.566 1.566 0 0 0 1.904.219 12.637 12.637 0 0 1 3.62-1.454 1.516 1.516 0 0 0 1.198-1.47V219h3.389v1.09c0 .698.505 1.31 1.197 1.47 1.284.296 2.495.787 3.62 1.454.245.151.534.227.808.227.404 0 .808-.153 1.096-.446l.808-.774 2.394 2.333-.793.773a1.492 1.492 0 0 0-.231 1.863 11.555 11.555 0 0 1 1.5 3.515 1.55 1.55 0 0 0 1.514 1.158H904"/>
        <path fill="#8298C1" d="M894 233.5c0 .916-.26 1.769-.74 2.473a4.482 4.482 0 0 1-3.753 2.027 4.504 4.504 0 0 1-4.507-4.5c0-1.737.986-3.247 2.435-3.991a4.353 4.353 0 0 1 2.072-.509 4.496 4.496 0 0 1 4.493 4.5"/>
        <path fill="#C3CFE0" d="M893 233.206a4.03 4.03 0 0 1-.706 2.312 4.345 4.345 0 0 1-1.992.482c-2.365 0-4.302-1.878-4.302-4.205 0-.857.277-1.653.733-2.32a4.226 4.226 0 0 1 1.978-.475c2.366 0 4.289 1.88 4.289 4.206"/>
        <path fill="#E3EAF1" d="M891 232c0 .553-.443 1-1.008 1a.995.995 0 0 1-.992-1c0-.553.443-1 .992-1a.998.998 0 0 1 1.008 1"/>
        <path fill="#8298C1" d="M982 199.857V202h-51v-19.957c0-3.89 3.095-7.043 6.9-7.043h19.182c3.337 0 6.546 1.307 8.945 3.654l11.955 11.607c2.57 2.498 4.018 5.964 4.018 9.596"/>
        <path fill="#A0B2D1" d="M981 199.857V202h-46v-19.957c0-3.89 3.057-7.043 6.83-7.043h14.557c3.296 0 6.465 1.307 8.836 3.654l11.808 11.607c2.539 2.498 3.969 5.964 3.969 9.596"/>
        <path fill="#C3CFE0" d="M982 199.857V202h-41v-19.957c0-3.89 3.059-7.043 6.82-7.043h9.555c3.297 0 6.468 1.307 8.84 3.654l11.814 11.607c2.54 2.498 3.971 5.964 3.971 9.596"/>
        <path fill="#3A3B44" d="M874 194c-.556 0-1-.586-1-1.307v-31.386c0-.721.444-1.307 1-1.307s1 .586 1 1.307v31.386c0 .721-.444 1.307-1 1.307"/>
        <path fill="#AA2D2F" d="M877 137.752V149h-6v-11.248c0-1.523 1.348-2.752 3-2.752h.015c.53 0 1.046.133 1.485.367.894.472 1.5 1.364 1.5 2.385"/>
        <path fill="#DB383B" d="M877 138.45V150h-3v-11.55c0-1.049.594-1.965 1.492-2.45.899.485 1.508 1.401 1.508 2.45"/>
        <path fill="#8298C1" d="M895 144a21.011 21.011 0 0 1-3.61 10.955l-.256.383c-3.723 5.246-9.805 8.662-16.641 8.662-11.028 0-20.038-8.875-20.493-20h41"/>
        <path fill="#A0B2D1" d="M894 144a20.42 20.42 0 0 1-3.56 10.71l-.253.375A20.106 20.106 0 0 1 875.932 161c-10.008 0-18.32-7.346-19.932-17h38"/>
        <path fill="#C3CFE0" d="M895 144a21.552 21.552 0 0 1-3.604 11.114A19.851 19.851 0 0 1 879.578 159c-9.221 0-17.024-6.313-19.578-15h35"/>
        <path fill="#AA2D2F" d="M880 194.398V201h-13v-6.602c0-1.88 1.464-3.398 3.294-3.398h6.412c1.816 0 3.294 1.517 3.294 3.398"/>
        <path fill="#DB383B" d="M881 194.398V201h-12v-6.602c0-1.88 1.56-3.398 3.48-3.398h5.04c1.92 0 3.48 1.517 3.48 3.398"/>
        <path fill="#DC3D40" d="M881 194.398V201h-10v-6.602c0-1.88 1.662-3.398 3.738-3.398h2.524c2.061 0 3.738 1.517 3.738 3.398"/>
        <path fill="#E98C8E" d="M877 198c-.559 0-1-.418-1-.932v-3.136c0-.514.441-.932 1-.932.544 0 1 .418 1 .932v3.136c0 .514-.456.932-1 .932"/>
        <path fill="#3A3B44" d="M1025.902 204c-.678 0-1.37-.262-1.894-.784a2.702 2.702 0 0 1 0-3.785l4.65-4.658v-13.548l-3.858-3.871h-10.6l-3.858 3.871v13.548l4.65 4.658a2.703 2.703 0 0 1 0 3.786 2.682 2.682 0 0 1-3.788-.001l-5.427-5.442a2.638 2.638 0 0 1-.777-1.89v-15.767c0-.71.269-1.392.777-1.893l5.427-5.44a2.7 2.7 0 0 1 1.894-.784h12.804a2.7 2.7 0 0 1 1.894.784l5.427 5.44c.508.501.777 1.184.777 1.893v15.766c0 .71-.269 1.39-.777 1.891l-5.427 5.442a2.684 2.684 0 0 1-1.894.784"/>
        <path fill="#4E4F5C" d="M1013.585 202c-.312 0-.595-.12-.807-.338l-5.452-5.45a1.155 1.155 0 0 1-.326-.813V179.6c0-.306.113-.596.326-.813l5.452-5.45a1.11 1.11 0 0 1 .807-.338h12.83c.297 0 .595.122.807.338l5.452 5.45c.213.217.326.507.326.813V195.4c0 .306-.113.594-.326.813l-5.452 5.45a1.115 1.115 0 0 1-.807.338c-.312 0-.595-.12-.807-.338a1.163 1.163 0 0 1-.34-.812c0-.307.127-.596.34-.813l4.659-4.666c.283-.287.439-.677.439-1.084v-13.575c0-.406-.156-.796-.44-1.084l-3.88-3.88a1.529 1.529 0 0 0-1.076-.449h-10.62c-.397 0-.793.162-1.077.448l-3.88 3.881a1.543 1.543 0 0 0-.439 1.084v13.575c0 .407.156.797.44 1.084l4.658 4.666a1.142 1.142 0 0 1 0 1.625 1.115 1.115 0 0 1-.807.338"/>
        <path fill="#74738A" d="M1026.292 201l-.264-.112-.111-.266.11-.265 4.57-4.587c.43-.426.653-.994.653-1.599v-13.344a2.22 2.22 0 0 0-.653-1.597l-3.805-3.815a2.206 2.206 0 0 0-1.584-.662h-10.416a2.2 2.2 0 0 0-1.584.662l-3.805 3.815a2.22 2.22 0 0 0-.653 1.597v13.344c0 .605.222 1.171.653 1.6l4.57 4.586a.392.392 0 0 1 0 .533l-.265.11-.264-.11-5.347-5.36-.097-.266v-15.528l.097-.267 5.347-5.357.264-.112h12.584l.264.112 5.347 5.357.097.267v15.528l-.097.265-5.347 5.36-.264.111"/>
        <path fill="#3A3B44" d="M1020.314 178a2.663 2.663 0 0 1-1.52-.477l-29.277-20.393-25.157 20.279a2.66 2.66 0 0 1-3.779-.446 2.768 2.768 0 0 1 .44-3.844l26.706-21.528a2.646 2.646 0 0 1 3.182-.114l30.925 21.529c1.221.852 1.534 2.555.696 3.802a2.677 2.677 0 0 1-2.216 1.191"/>
        <path fill="#4E4F5C" d="M1019.843 177c-.228 0-.455-.071-.654-.204l-29.31-20.503a1.538 1.538 0 0 0-.868-.273c-.341 0-.682.113-.967.339l-25.186 20.386c-.256.211-.526.255-.71.255-.356 0-.684-.163-.897-.447a1.196 1.196 0 0 1 .185-1.657l26.736-21.641c.213-.166.455-.255.711-.255.242 0 .47.071.654.207l30.96 21.641c.256.178.427.446.484.755.057.31-.015.625-.185.883a1.141 1.141 0 0 1-.953.514"/>
        <path fill="#74738A" d="M1019.619 175l-.212-.067-29.094-20.108a2.254 2.254 0 0 0-2.709.096l-24.988 19.996-.24.083-.296-.146a.402.402 0 0 1 .056-.542l26.54-21.228.226-.084.226.067 30.703 21.23.169.246-.07.289a.373.373 0 0 1-.311.168"/>
        <path fill="#E3EAF1" d="M913 207.5c0-.829.74-1.5 1.637-1.5h28.726c.897 0 1.637.671 1.637 1.5s-.74 1.5-1.637 1.5h-28.726c-.897 0-1.637-.671-1.637-1.5M977.802 195.735c-.3.316-.842.355-1.202.086l-11.296-8.498c-.36-.268-.406-.742-.106-1.059a.937.937 0 0 1 1.202-.086l11.296 8.498c.36.269.406.742.106 1.059"/>
        <path fill="#AA2D2F" d="M969 174.5a6.49 6.49 0 0 1-6.5 6.5 6.507 6.507 0 0 1-6.5-6.5 6.488 6.488 0 0 1 3.455-5.735A6.372 6.372 0 0 1 962.5 168c3.597 0 6.5 2.912 6.5 6.5"/>
        <path fill="#DB383B" d="M969 174.525a6.421 6.421 0 0 1-1.179 3.708 6.773 6.773 0 0 1-3.142.767c-3.682 0-6.679-2.925-6.679-6.526a6.31 6.31 0 0 1 1.193-3.707 6.67 6.67 0 0 1 3.128-.767c3.696 0 6.679 2.923 6.679 6.525"/>
        <path fill="#E98C8E" d="M967 174c0 1.103-.903 2-2 2s-2-.897-2-2c0-1.105.903-2 2-2s2 .895 2 2"/>
        <path fill="#AA2D2F" d="M996 153.5a6.488 6.488 0 0 1-6.5 6.5 6.508 6.508 0 0 1-6.5-6.5 6.502 6.502 0 0 1 6.5-6.5c3.597 0 6.5 2.913 6.5 6.5"/>
        <path fill="#DB383B" d="M996 153.525a6.418 6.418 0 0 1-1.179 3.708 6.773 6.773 0 0 1-3.142.767c-3.682 0-6.679-2.923-6.679-6.525 0-1.381.437-2.656 1.179-3.708a6.773 6.773 0 0 1 3.142-.767c3.696 0 6.679 2.925 6.679 6.525"/>
        <path fill="#E98C8E" d="M993 153c0 1.104-.903 2-2 2s-2-.896-2-2c0-1.106.903-2 2-2s2 .894 2 2"/>
        <path fill="#AA2D2F" d="M1026 174.5a6.407 6.407 0 0 1-1.161 3.694A6.464 6.464 0 0 1 1019.5 181a6.498 6.498 0 0 1-6.5-6.5 6.476 6.476 0 0 1 3.441-5.735 6.428 6.428 0 0 1 3.059-.765c3.597 0 6.5 2.912 6.5 6.5"/>
        <path fill="#DB383B" d="M1026 174.525a6.33 6.33 0 0 1-1.193 3.708 6.67 6.67 0 0 1-3.128.767c-3.696 0-6.679-2.925-6.679-6.526a6.4 6.4 0 0 1 1.179-3.707 6.729 6.729 0 0 1 3.142-.767c3.696 0 6.679 2.923 6.679 6.525"/>
        <path fill="#E98C8E" d="M1024 174c0 1.103-.903 2-2 2-1.113 0-2-.897-2-2 0-1.105.887-2 2-2 1.097 0 2 .895 2 2"/>
        <path fill="#4E4F5C" d="M74.063 187a3.99 3.99 0 0 1-1.862-.46l-27.133-14.302c-1.911-1.008-2.627-3.342-1.597-5.214 1.03-1.872 3.418-2.57 5.327-1.563l27.133 14.3c1.913 1.008 2.627 3.342 1.599 5.214-.712 1.29-2.067 2.025-3.467 2.025"/>
        <path fill="#74738A" d="M74.338 185c-.274 0-.538-.068-.784-.201l-26.683-14.626a1.704 1.704 0 0 1-.673-2.285c.29-.548.85-.888 1.465-.888.274 0 .535.068.779.203l26.686 14.624c.39.214.673.57.8 1.003.129.43.084.887-.127 1.284-.29.547-.85.886-1.463.886"/>
        <path fill="#4E4F5C" d="M177.936 187c-1.4 0-2.754-.734-3.466-2.025-1.029-1.872-.313-4.206 1.599-5.214l27.132-14.3c1.911-1.008 4.298-.309 5.328 1.563 1.03 1.872.314 4.206-1.599 5.214l-27.132 14.301a3.992 3.992 0 0 1-1.862.461"/>
        <path fill="#74738A" d="M177.66 185a1.653 1.653 0 0 1-1.462-.888 1.705 1.705 0 0 1 .673-2.284l26.686-14.624c.245-.135.508-.204.782-.204.612 0 1.174.34 1.463.889.433.82.131 1.844-.673 2.285l-26.686 14.625a1.612 1.612 0 0 1-.783.201"/>
        <path fill="#4E4F5C" d="M31.93 246a3.93 3.93 0 0 1-.826-.087c-2.118-.45-3.47-2.517-3.016-4.618l18.505-85.684C48.17 148.302 54.791 143 62.333 143h4.742c2.167 0 3.925 1.741 3.925 3.889 0 2.15-1.758 3.89-3.925 3.89h-4.743c-3.861 0-7.252 2.716-8.061 6.458l-18.505 85.686C35.372 244.75 33.743 246 31.93 246"/>
        <path fill="#74738A" d="M31.657 244l-.341-.038a1.677 1.677 0 0 1-1.28-1.987l18.26-86.074C49.638 149.585 55.258 145 61.662 145h4.68c.915 0 1.658.751 1.658 1.674 0 .925-.743 1.675-1.658 1.675h-4.68c-4.849 0-9.103 3.472-10.118 8.254l-18.26 86.071a1.671 1.671 0 0 1-1.62 1.326h-.007"/>
        <path fill="#F2B229" d="M34.834 248h-7.668c-2.854 0-5.166-2.463-5.166-5.5s2.312-5.5 5.166-5.5h7.668c2.854 0 5.166 2.463 5.166 5.5s-2.312 5.5-5.166 5.5"/>
        <path fill="#4E4F5C" d="M220.069 246c-1.812 0-3.44-1.25-3.835-3.077l-18.506-85.686c-.808-3.742-4.197-6.459-8.062-6.459h-4.74c-2.168 0-3.926-1.74-3.926-3.89 0-2.147 1.758-3.888 3.926-3.888h4.74c7.543 0 14.162 5.302 15.74 12.61l18.506 85.685c.454 2.1-.897 4.169-3.018 4.618a4.006 4.006 0 0 1-.825.087"/>
        <path fill="#74738A" d="M219.336 244a1.67 1.67 0 0 1-1.62-1.326l-18.259-86.071c-1.013-4.782-5.27-8.254-10.12-8.254h-4.676c-.916 0-1.661-.75-1.661-1.675a1.67 1.67 0 0 1 1.66-1.674h4.677c6.406 0 12.027 4.585 13.366 10.901l18.26 86.073a1.68 1.68 0 0 1-.23 1.262 1.651 1.651 0 0 1-1.045.726l-.352.038"/>
        <path fill="#F2B229" d="M216.166 248h7.668c2.853 0 5.166-2.463 5.166-5.5s-2.313-5.5-5.166-5.5h-7.668c-2.853 0-5.166 2.463-5.166 5.5s2.313 5.5 5.166 5.5"/>
        <path fill="#C4722F" d="M189 114.75V168H62v-53.25c0-5.81.897-11.42 2.557-16.673C71.557 75.99 92.058 60 116.268 60h18.464c24.21 0 44.71 15.989 51.698 38.077A54.877 54.877 0 0 1 189 114.75"/>
        <path fill="#DE952F" d="M190 114.75V168H80v-53.25c0-5.81.9-11.42 2.564-16.673C89.572 75.99 110.104 60 134.35 60h1.3c1.23 0 2.438.044 3.648.123 22.639 1.508 41.484 16.983 48.127 37.954A54.801 54.801 0 0 1 190 114.75"/>
        <path fill="#F2B229" d="M190 114.69V168H88v-53.31c0-5.817.903-11.434 2.576-16.692C97.271 77.003 116.228 61.51 139 60c22.772 1.51 41.729 17.003 48.411 37.998A54.625 54.625 0 0 1 190 114.689"/>
        <path fill="#3A3B44" d="M104.597 108h42.808c5.299 0 9.595 4.293 9.595 9.588V167H95v-49.412c0-5.295 4.296-9.588 9.597-9.588"/>
        <path fill="#74738A" d="M100.999 156a2 2 0 1 1 .002 4 2 2 0 0 1-.002-4M100.999 144a2 2 0 1 1 .002 4 2 2 0 0 1-.002-4M100.999 133a2 2 0 1 1 .002 4 2 2 0 0 1-.002-4M100.999 122a2 2 0 1 1 .002 4 2 2 0 0 1-.002-4M117 113.999a2 2 0 1 1 0 0M104 113.999a2.001 2.001 0 0 1-1.999 2.001 2.003 2.003 0 0 1-2.001-2.001 2 2 0 1 1 4 0M128 113.999a2.001 2.001 0 1 1-4.002 0 2.001 2.001 0 0 1 4.002 0M140 113.999a2 2 0 1 1 0 0M151 113.999a2.001 2.001 0 1 1-4.002 0 2.001 2.001 0 0 1 4.002 0M152 126c-1.105 0-2-.895-2-2a1.999 1.999 0 1 1 4 0 2 2 0 0 1-2 2M152 137a1.999 1.999 0 1 1 0-4 2 2 0 1 1 0 4M152 148a2 2 0 1 1 0-3.999 2 2 0 0 1 0 3.999M152 160a1.999 1.999 0 1 1 0-4 2 2 0 1 1 0 4"/>
        <path fill="#4E4F5C" d="M147 122.572V168h-42v-45.428c0-1.97 1.592-3.572 3.548-3.572h34.915c1.956 0 3.537 1.603 3.537 3.572"/>
        <path fill="#74738A" d="M148 122.572V168h-32v-45.428c0-1.97 1.63-3.572 3.637-3.572h24.738c2.005 0 3.625 1.603 3.625 3.572"/>
        <path fill="#8DA09D" d="M140 136.5c0 8.009-6.491 14.5-14.5 14.5-8.007 0-14.5-6.491-14.5-14.5s6.493-14.5 14.5-14.5c8.009 0 14.5 6.491 14.5 14.5"/>
        <path fill="#29B5C0" d="M136 136.5c0 2.951-1.218 5.632-3.188 7.528A10.451 10.451 0 0 1 125.5 147c-5.793 0-10.499-4.706-10.499-10.5 0-5.666 4.502-10.285 10.112-10.489.13-.011.26-.011.387-.011 5.805 0 10.501 4.706 10.501 10.5"/>
        <path fill="#7BC8CD" d="M137 136.477c0 2.945-1.297 5.62-3.395 7.512-.137.011-.288.011-.424.011-6.17 0-11.181-4.697-11.181-10.479 0-2.943 1.306-5.62 3.405-7.51.139-.011.277-.011.413-.011 6.181 0 11.182 4.696 11.182 10.477"/>
        <path fill="#3A3B44" d="M190 114.452V167h-20v-61.688c0-4.037 3.343-7.312 7.476-7.312h9.904a52.554 52.554 0 0 1 2.62 16.452M82 105.312V167H62v-52.548c0-5.733.914-11.27 2.607-16.452h9.905c4.135 0 7.488 3.275 7.488 7.312"/>
        <path fill="#74738A" d="M180 113a2 2 0 1 1 0-4 2 2 0 0 1 0 4M180 120a2 2 0 1 1-.001-3.999A2 2 0 0 1 180 120M180 129a2 2 0 1 1 .001-4.001A2 2 0 0 1 180 129M180 136a2 2 0 1 1 .001-4.001A2 2 0 0 1 180 136M180 143a2 2 0 1 1 0-4 2 2 0 0 1 0 4M180 151a2 2 0 1 1 0-4 2 2 0 0 1 0 4M180 158a2 2 0 1 1 0-4 2 2 0 0 1 0 4M72 113a1.999 1.999 0 1 1 0-4 2 2 0 1 1 0 4M72 120a2 2 0 1 1 2-2 2 2 0 0 1-2 2M72 129a2 2 0 1 1 0-4 2 2 0 0 1 0 4M72 136a2 2 0 1 1 0-4 2 2 0 0 1 0 4M72 143a1.999 1.999 0 1 1 0-4 2 2 0 1 1 0 4M72 151a2 2 0 1 1 0-3.999A2 2 0 0 1 72 151M72 158a2 2 0 1 1 .002-4 2 2 0 0 1-.003 4"/>
        <path fill="#3A3B44" d="M135 59.5a9.443 9.443 0 0 1-.627 3.387A9.489 9.489 0 0 1 125.5 69c-5.242 0-9.499-4.258-9.499-9.5 0-3.354 1.733-6.293 4.359-7.991a9.466 9.466 0 0 1 5.14-1.509c5.254 0 9.501 4.258 9.501 9.5"/>
        <path fill="#74738A" d="M135 59.24c0 1.163-.22 2.272-.616 3.294A9.373 9.373 0 0 1 129.333 64c-5.148 0-9.333-4.13-9.333-9.24 0-1.163.22-2.271.616-3.293a9.368 9.368 0 0 1 5.05-1.467c5.161 0 9.334 4.141 9.334 9.24"/>
        <path fill="#3A3B44" d="M131 47.5a3.5 3.5 0 1 1 0 0"/>
        <path fill="#74738A" d="M130 47.3c0 .415-.073.811-.204 1.176a2.976 2.976 0 0 1-1.684.524c-1.718 0-3.112-1.475-3.112-3.3 0-.415.073-.811.204-1.176a2.966 2.966 0 0 1 1.684-.524c1.722 0 3.112 1.48 3.112 3.3"/>
        <path fill="#3A3B44" d="M182 167v16.21c0 5.403-4.328 9.79-9.67 9.79H78.659c-5.332 0-9.658-4.387-9.658-9.79V167h113"/>
        <path fill="#484955" d="M182 167v16.21c0 5.403-4.306 9.79-9.62 9.79H88.607c-5.303 0-9.608-4.387-9.608-9.79V167h103"/>
        <path fill="#4E4F5C" d="M181 167v16.21c0 5.403-4.282 9.79-9.567 9.79h-62.868c-5.285 0-9.565-4.387-9.565-9.79V167h82"/>
        <path fill="#74738A" d="M161 193h8v-26h-8z"/>
        <path fill="#C1E4E8" d="M130 134a2 2 0 1 1-4 0 2 2 0 0 1 4 0"/>
        <path fill="#AA2D2F" d="M155.82 18.33L143.963 31 138 24.985l11.856-12.672c1.606-1.714 4.235-1.753 5.879-.096l.008.009a4.37 4.37 0 0 1 1.101 1.915c.389 1.428.05 3.039-1.024 4.188"/>
        <path fill="#DB383B" d="M155.821 18.32L143.976 31 141 27.994l11.847-12.678c1.072-1.15 2.614-1.55 3.998-1.186.388 1.429.05 3.04-1.024 4.19"/>
        <path fill="#8298C1" d="M168 43.481a30.52 30.52 0 0 1-15.14 7.921c-.221.045-.457.09-.685.127a30.551 30.551 0 0 1-26.832-8.359c-11.888-11.7-12.469-30.758-1.528-43.17L168 43.481"/>
        <path fill="#A0B2D1" d="M169 43.1a30.766 30.766 0 0 1-15.843 7.898c-7.853.08-15.735-2.807-21.806-8.664C120.4 31.773 119.033 15.089 127.43 3L169 43.1"/>
        <path fill="#C3CFE0" d="M168 43.273A30.6 30.6 0 0 1 152.927 51a30.596 30.596 0 0 1-16.623-8.241c-9.917-9.563-11.932-24.155-5.92-35.759L168 43.273"/>
        <path fill="#C05037" d="M393.425 252h-69.847c-3.081 0-5.578-2.463-5.578-5.499 0-3.038 2.497-5.501 5.578-5.501h69.847c3.078 0 5.575 2.463 5.575 5.501 0 3.036-2.497 5.499-5.575 5.499"/>
        <path fill="#F7F4E1" d="M526.002 254.02L526 254l.002.02M526.144 254.874h.002a12.64 12.64 0 0 1-.002 0M527.02 257.042L527 257l.02.042M527.082 256.168L527 256l.082.168M527 256c.158.345.35.68.57 1a6.711 6.711 0 0 1-.566-1H527"/>
        <g>
            <path fill="#7A7B77" d="M372.96 219h-36.917a4.05 4.05 0 0 1-4.043-4.054v-38.893a4.048 4.048 0 0 1 4.043-4.053h36.917c2.23 0 4.04 1.814 4.04 4.053v38.893a4.048 4.048 0 0 1-4.04 4.054"/>
            <path fill="#41413F" d="M371.318 217h-33.636c-2.034 0-3.682-1.66-3.682-3.707v-35.584c0-2.048 1.648-3.709 3.682-3.709h33.636c2.034 0 3.682 1.66 3.682 3.709v35.584c0 2.048-1.648 3.707-3.682 3.707"/>
            <path fill="#C1C0BB" d="M374 178.252V210h-38v-31.748c0-.526.128-1.024.354-1.463a3.255 3.255 0 0 1 2.908-1.789h31.47c1.278 0 2.378.73 2.912 1.789.228.439.356.937.356 1.463"/>
            <path fill="#F0F0EC" d="M374 178.179V204h-32v-29h28.774c1.261 0 2.348.713 2.875 1.748.225.43.351.916.351 1.43"/>
            <path fill="#C1C0BB" d="M374 210v34.577c0 .285-.019.57-.055.852a6.735 6.735 0 0 1-.411 1.714 5.399 5.399 0 0 1-.353.782c-1.23 2.418-3.783 4.075-6.717 4.075-3.25 0-6.017-2.023-7.073-4.857a6.796 6.796 0 0 1-.412-1.714 7.024 7.024 0 0 1-.052-.852v-25.28c0-.326-.041-.634-.122-.938a3.84 3.84 0 0 0-1.027-1.8 3.964 3.964 0 0 0-2.78-1.13c-2.168 0-3.925 1.731-3.925 3.867v25.28c0 .286-.02.572-.054.853a6.794 6.794 0 0 1-.41 1.714c-.1.269-.217.532-.354.782-1.232 2.418-3.783 4.075-6.719 4.075-3.248 0-6.015-2.023-7.073-4.857a6.858 6.858 0 0 1-.411-1.714 7.326 7.326 0 0 1-.052-.852V210h38"/>
            <path fill="#F0F0EC" d="M374 210v34.19c0 .282-.019.565-.054.843a6.601 6.601 0 0 1-.412 1.695 5.31 5.31 0 0 1-.353.773 7.788 7.788 0 0 1-2.736.499c-3.247 0-6.012-2.001-7.069-4.804a6.75 6.75 0 0 1-.412-1.695 7.126 7.126 0 0 1-.051-.841v-18.573a3.777 3.777 0 0 0-1.149-2.708 3.96 3.96 0 0 0-2.776-1.123l-.174.01a3.787 3.787 0 0 0-1.027-1.78 3.984 3.984 0 0 0-2.778-1.118c-2.166 0-3.923 1.712-3.923 3.824v24.998c0 .282-.019.565-.053.843a6.659 6.659 0 0 1-.41 1.695c-.1.266-.217.526-.355.773a7.79 7.79 0 0 1-2.737.499c-3.246 0-6.012-2.001-7.068-4.804a6.69 6.69 0 0 1-.411-1.695 6.833 6.833 0 0 1-.052-.841V210h34"/>
            <path fill="#42748A" d="M351 245a2.697 2.697 0 0 1-.411 1h-14.176a2.725 2.725 0 0 1-.413-1h15M336 240h15v-1h-15zM336 234h15v-1h-15zM336 228h15v-1h-15zM336 221h15v-1h-15z"/>
            <path fill="#C1C0BB" d="M339 175.605l-1.38 4.67-.491 1.651-1.3 4.4-.486 1.651-1.305 4.395-.485 1.65-1.3 4.4-.49 1.652-1.058 3.574c-.081.275-.178.55-.294.808a6.756 6.756 0 0 1-.877 1.535 7.546 7.546 0 0 1-8.14 2.706 7.475 7.475 0 0 1-3.788-2.539 7.388 7.388 0 0 1-1.588-4.103 6.884 6.884 0 0 1 .098-1.759c.046-.28.109-.562.19-.836l1.058-3.581.491-1.645 1.299-4.4.485-1.651h.006l.733-2.486c.19-.648.427-1.279.694-1.88.243-.533.513-1.049.807-1.548a14.733 14.733 0 0 1 3.3-3.82 15.125 15.125 0 0 1 7.792-3.342 15.186 15.186 0 0 1 6.029.498"/>
            <path fill="#F0F0EC" d="M333 175l-.694 2.344-.492 1.648-1.301 4.389-.487 1.646-1.308 4.386-.485 1.646-1.303 4.39-.492 1.646-1.057 3.567c-.082.275-.18.55-.297.806a6.685 6.685 0 0 1-.88 1.532 7.569 7.569 0 0 1-6.595 2.979 7.354 7.354 0 0 1-1.591-4.094 6.84 6.84 0 0 1 .099-1.754c.045-.28.108-.562.19-.835l1.059-3.573.492-1.64 1.301-4.39.487-1.648h.006l.734-2.48c.19-.646.428-1.275.695-1.875.244-.531.514-1.046.809-1.544a14.716 14.716 0 0 1 3.304-3.812A15.193 15.193 0 0 1 333 175"/>
            <path fill="#42748A" d="M330 204.384a7.554 7.554 0 0 1-.855 1.616l-13.125-4.143a7.748 7.748 0 0 1 .09-1.857l13.89 4.384M332 199.305l-.492 1.695L317 196.694l.49-1.694 14.51 4.305M334 193.306l-.492 1.694L319 190.695l.492-1.695L334 193.306M336 187.265l-.494 1.735L321 184.627c.247-.56.521-1.101.82-1.627l14.18 4.265M339 180.611l-.513 1.389L326 179.072a15.543 15.543 0 0 1 1.878-1.072L339 180.611"/>
            <path fill="#C1C0BB" d="M394.982 202.055a7.293 7.293 0 0 1-.434 2.03 7.438 7.438 0 0 1-4.943 4.612 7.544 7.544 0 0 1-8.139-2.706 6.703 6.703 0 0 1-.877-1.535 6.485 6.485 0 0 1-.294-.808l-1.058-3.574-.491-1.651-1.299-4.4-.485-1.65-1.305-4.395-.485-1.651-1.3-4.4-.492-1.65-1.38-4.67a15.221 15.221 0 0 1 5.429-.562c2.357.189 4.616.934 6.596 2.132.63.378 1.231.802 1.797 1.273a14.76 14.76 0 0 1 3.299 3.82c.294.5.564 1.015.807 1.548.267.601.503 1.232.693 1.88l.734 2.485h.006l.485 1.651 1.299 4.401.491 1.644 1.058 3.581c.081.274.144.556.19.837.11.584.14 1.18.098 1.758"/>
            <path fill="#F0F0EC" d="M394.982 201.498a6.896 6.896 0 0 1-.445 1.991c-.212.076-.436.15-.663.213-3.17.888-6.472-.27-8.336-2.653a6.6 6.6 0 0 1-.899-1.507 6.036 6.036 0 0 1-.301-.791l-1.083-3.51-.504-1.618-1.33-4.316-.497-1.62-1.337-4.311-.497-1.619-1.332-4.318-.503-1.619L377 175c2.415.185 4.728.916 6.757 2.091a14.78 14.78 0 0 1 1.84 1.249 14.679 14.679 0 0 1 3.38 3.748c.302.49.578.996.827 1.518.274.59.515 1.209.71 1.844l.752 2.439h.006l.497 1.62 1.33 4.317.504 1.613 1.083 3.513c.084.269.148.545.195.82.112.573.143 1.159.1 1.726"/>
            <path fill="#42748A" d="M380 204.384c.223.582.512 1.125.855 1.616l13.125-4.143a7.82 7.82 0 0 0-.09-1.857L380 204.384M379 199.305l.492 1.695L394 196.694l-.492-1.694L379 199.305M377 193.306l.492 1.694L392 190.695l-.492-1.695L377 193.306M375 187.265l.494 1.735L390 184.627c-.247-.56-.521-1.101-.82-1.627L375 187.265M373 180.611l.513 1.389L386 179.072a15.543 15.543 0 0 0-1.878-1.072L373 180.611M374 245a2.676 2.676 0 0 1-.413 1h-14.174a2.7 2.7 0 0 1-.413-1h15M359 240h15v-1h-15zM359 234h15v-1h-15zM359 228h15v-1h-15zM359 221h15v-1h-15z"/>
            <path fill="#26414D" d="M352 192.967v1.064c0 .225-.023.443-.07.654-.283 1.327-1.395 2.315-2.733 2.315h-4.399c-1.549 0-2.798-1.331-2.798-2.969v-1.064c0-1.386.904-2.556 2.124-2.88.216-.056.438-.087.674-.087h4.4c1.547 0 2.802 1.333 2.802 2.967"/>
            <path fill="#42748A" d="M352 192.484v.89c0 .188-.02.37-.061.547a2.311 2.311 0 0 1-.6.079h-3.874c-1.365 0-2.465-1.114-2.465-2.49v-.885c0-.188.022-.375.063-.552.19-.047.386-.073.594-.073h3.874a2.479 2.479 0 0 1 2.469 2.484"/>
            <path fill="#26414D" d="M367 193.503c0 .436-.082.853-.226 1.231a3.5 3.5 0 0 1-6.774-1.231c0-1.251.654-2.346 1.636-2.961a3.46 3.46 0 0 1 1.866-.542 3.503 3.503 0 0 1 3.498 3.503"/>
            <path fill="#42748A" d="M367 193.32c0 .412-.073.808-.202 1.167a2.947 2.947 0 0 1-1.664.513c-1.732 0-3.134-1.486-3.134-3.318 0-.414.073-.81.2-1.169a2.972 2.972 0 0 1 1.67-.513c1.725 0 3.13 1.486 3.13 3.32"/>
            <path fill="#26414D" d="M366 202.998c0 .329-.078.638-.221.911a1.993 1.993 0 0 1-1.777 1.091c-1.109 0-2.002-.9-2.002-2.002 0-.954.674-1.758 1.573-1.95a1.998 1.998 0 0 1 2.427 1.95"/>
            <path fill="#C1C0BB" d="M374 176.86c-4.696 5.022-11.247 8.14-18.5 8.14-7.252 0-13.803-3.118-18.5-8.14.53-1.101 1.623-1.86 2.885-1.86h31.226c1.267 0 2.36.759 2.889 1.86"/>
            <path fill="#797A76" d="M382 156.286v6.427c0 .26-.017.521-.057.776-.38 2.55-2.614 4.511-5.302 4.511H373v-17h3.641c2.958 0 5.359 2.367 5.359 5.286M337 151v17h-3.642c-2.957 0-5.358-2.369-5.358-5.287v-6.427c0-2.017 1.148-3.774 2.831-4.664a5.412 5.412 0 0 1 2.527-.622H337"/>
            <path fill="#9E9F9B" d="M382 156.238v6.369c0 .258-.016.517-.055.77-.729.398-1.56.623-2.444.623H376v-13h.84c2.848 0 5.16 2.346 5.16 5.238M337 151v13h-.842c-2.852 0-5.158-2.347-5.158-5.24v-6.368c0-.264.016-.522.06-.775a5.093 5.093 0 0 1 2.433-.617H337"/>
            <path fill="#9E9F9B" d="M378 159a22.849 22.849 0 0 1-5.562 14.986 22.916 22.916 0 0 1-17.44 8.014C342.298 182 332 171.703 332 159c0-9.648 5.936-17.907 14.36-21.325A22.984 22.984 0 0 1 355 136C367.703 136 378 146.297 378 159"/>
            <path fill="#F0F0EC" d="M378 158.617c0 5.633-2.08 10.783-5.533 14.737a23.002 23.002 0 0 1-8.582 1.646C351.248 175 341 164.876 341 152.383c0-5.634 2.08-10.784 5.526-14.735a23.095 23.095 0 0 1 8.593-1.648C367.757 136 378 146.125 378 158.617"/>
            <path fill="#42748A" d="M350.982 139.767c.1.528-.226 1.075-.727 1.205-.503.128-1.045-.193-1.211-.72-.167-.524.158-1.07.723-1.217.567-.145 1.108.176 1.215.732M355 139.95c-.006.551-.428 1.022-.947 1.049-.518.025-.987-.4-1.047-.949-.06-.548.364-1.019.947-1.049.583-.03 1.053.396 1.047.949M357.98 140.152c-.112.54-.617.915-1.131.838-.513-.082-.892-.588-.845-1.123.048-.565.554-.944 1.133-.854.579.09.956.6.843 1.139"/>
            <path fill="#2A2B29" d="M378 160c0 2.68-.838 5.209-2.334 7.463C371.931 173.111 364.084 177 355 177 342.297 177 332 169.39 332 160c0-6.176 4.458-11.586 11.134-14.564 3.459-1.546 7.523-2.436 11.865-2.436 12.704 0 23.001 7.612 23.001 17"/>
            <path fill="#3C3C3A" d="M378 160.067c0 2.69-.834 5.229-2.322 7.492-3.44 1.548-7.479 2.441-11.793 2.441-12.637 0-22.885-7.643-22.885-17.069 0-2.687.834-5.228 2.316-7.486 3.441-1.552 7.484-2.445 11.803-2.445 12.638 0 22.881 7.641 22.881 17.067"/>
            <path fill="#FFFFFE" d="M368.5 197c-.276 0-.5-.405-.5-.903v-9.193c0-.5.224-.904.5-.904s.5.405.5.904v9.193c0 .498-.224.903-.5.903M390.291 195.977c-.494.107-.99-.173-1.106-.624l-2.16-8.32c-.117-.451.188-.903.682-1.01.496-.108.992.172 1.109.623l2.16 8.32c.116.453-.19.904-.685 1.011M369.5 229c-.277 0-.5-.403-.5-.903v-9.194c0-.5.223-.903.5-.903s.5.403.5.903v9.194c0 .5-.223.903-.5.903"/>
        </g>
    </g>
</svg>
