<svg xmlns="http://www.w3.org/2000/svg" width="27" height="29" viewBox="0 0 27 29">
    <g fill="none" fill-rule="evenodd">
        <path fill="#F2DF45" d="M26.314 12.96l-7.826-6.729L10.226.057S4.936 6.254 1.379 14.55l2.919-.845S1.49 18.176.704 28.87c10.128-3.2 13.8-6.978 13.8-6.978l-.152 3.063c7.19-5.381 11.962-11.994 11.962-11.994"/>
        <path fill="#EBBA44" d="M24.714 11.061l-5.38-4.487-5.68-4.116S10.018 6.59 7.573 12.12l2.007-.564s-1.93 2.982-2.472 10.11c6.963-2.132 9.489-4.652 9.489-4.652l-.104 2.043c4.94-3.588 8.222-7.996 8.222-7.996"/>
    </g>
</svg>
