<svg xmlns="http://www.w3.org/2000/svg" xmlns:xlink="http://www.w3.org/1999/xlink" width="158" height="106" viewBox="0 0 158 106">
    <defs>
        <path id="a" d="M.387.486H84.84V106H.387z"/>
    </defs>
    <g fill="none" fill-rule="evenodd">
        <path fill="#F57C00" d="M79 0C49.73 0 26 23.505 26 52.5 26 81.496 49.73 105 79 105s53-23.504 53-52.5C132 23.505 108.27 0 79 0"/>
        <g transform="translate(26)">
            <mask id="b" fill="#fff">
                <use xlink:href="#a"/>
            </mask>
            <path fill="#FB8C00" d="M78.965 94.277H73.2c-3.245 0-5.875-2.625-5.875-5.862 0-3.238 2.63-5.862 5.875-5.862h5.764c3.246 0 5.875-2.626 5.875-5.862 0-3.237-2.629-5.861-5.875-5.861H73.2c-3.245 0-5.875-2.625-5.875-5.862 0-3.238 2.63-5.862 5.875-5.862h5.764c3.246 0 5.875-2.624 5.875-5.862 0-3.237-2.629-5.862-5.875-5.862H73.2c-3.245 0-5.875-2.625-5.875-5.861 0-3.238 2.63-5.862 5.875-5.862h5.764a5.868 5.868 0 0 0 5.875-5.864c0-3.236-2.629-5.86-5.875-5.86H73.2c-3.245 0-5.875-2.626-5.875-5.862 0-3.237 2.63-5.861 5.875-5.861h5.764c1.858 0 3.51-.864 4.587-2.205A52.705 52.705 0 0 0 53.269.487C24.064.486.387 24.106.387 53.243.387 82.38 24.064 106 53.269 106a52.704 52.704 0 0 0 30.283-9.518 5.862 5.862 0 0 0-4.587-2.205" mask="url(#b)"/>
        </g>
        <path fill="#FFA726" d="M79 100.34c0-3.234-2.636-5.855-5.889-5.855h-5.777c-3.253 0-5.888-2.621-5.888-5.855 0-3.234 2.635-5.855 5.888-5.855h5.777c3.253 0 5.889-2.621 5.889-5.855 0-3.234-2.636-5.855-5.889-5.855h-5.777c-3.253 0-5.888-2.621-5.888-5.855 0-3.234 2.635-5.855 5.888-5.855h5.777c3.253 0 5.889-2.621 5.889-5.855 0-3.234-2.636-5.855-5.889-5.855h-5.777c-3.253 0-5.888-2.621-5.888-5.855 0-3.234 2.635-5.855 5.888-5.855h5.777c3.253 0 5.889-2.621 5.889-5.855 0-3.234-2.636-5.855-5.889-5.855h-5.777c-3.253 0-5.888-2.621-5.888-5.855 0-3.234 2.635-5.855 5.888-5.855h5.777C76.364 12.515 79 9.894 79 6.66c0-2.723-1.871-5.005-4.406-5.66C47.39 3.226 26 25.874 26 53.5s21.389 50.274 48.594 52.5c2.535-.655 4.406-2.937 4.406-5.66"/>
        <path fill="#FFF3E0" d="M121.304 21.286c.335.448.664.9.986 1.363 8.03-1.956 13.16-2.273 13.913-.53 1.85 4.27-23.244 19.291-56.047 33.55-32.803 14.26-60.895 22.358-62.743 18.087-.755-1.743 2.98-5.276 9.892-9.818a48.119 48.119 0 0 1-.32-1.653C8.904 73.18-1.751 82.649.237 87.238 3.584 94.971 41.561 85.91 85.063 67c43.499-18.909 76.049-40.505 72.7-48.238-1.986-4.589-16.166-3.264-36.46 2.524"/>
        <path fill="#FFCC80" d="M121.475 22.215c.236.323.475.642.704.971 8.011-1.94 13.127-2.255 13.879-.526 1.844 4.235-23.186 19.136-55.906 33.28C47.432 70.087 19.411 78.12 17.57 73.883c-.754-1.729 2.97-5.233 9.865-9.739-.083-.39-.153-.783-.228-1.175-14.236 8.58-22.5 15.728-21.04 19.083 2.68 6.156 37.013-2.757 76.686-19.906 39.672-17.152 69.662-36.044 66.981-42.2-1.46-3.355-12.344-2.224-28.358 2.27"/>
    </g>
</svg>
